<svg width="22" height="21" viewBox="0 0 22 21" fill="none" xmlns="http://www.w3.org/2000/svg">
<path d="M7.75034 10.5003L9.917 12.667L14.2503 8.33367M6.48797 2.5888C7.2653 2.52677 8.00325 2.2211 8.59676 1.71531C9.98179 0.535 12.0189 0.535 13.4039 1.71531C13.9974 2.2211 14.7354 2.52677 15.5127 2.5888C17.3267 2.73356 18.7671 4.174 18.9119 5.98797C18.9739 6.7653 19.2796 7.50325 19.7854 8.09676C20.9657 9.48179 20.9657 11.5189 19.7854 12.9039C19.2796 13.4974 18.9739 14.2354 18.9119 15.0127C18.7671 16.8267 17.3267 18.2671 15.5127 18.4119C14.7354 18.4739 13.9974 18.7796 13.4039 19.2854C12.0189 20.4657 9.98179 20.4657 8.59676 19.2854C8.00325 18.7796 7.2653 18.4739 6.48797 18.4119C4.674 18.2671 3.23356 16.8267 3.0888 15.0127C3.02677 14.2354 2.7211 13.4974 2.21531 12.9039C1.035 11.5189 1.035 9.48179 2.21531 8.09676C2.7211 7.50325 3.02677 6.7653 3.0888 5.98797C3.23356 4.174 4.674 2.73356 6.48797 2.5888Z" stroke="#111827" stroke-width="1.5" stroke-linecap="round" stroke-linejoin="round"/>
</svg>
