<svg width="10" height="10" viewBox="0 0 10 10" fill="none" xmlns="http://www.w3.org/2000/svg">
<path d="M7.5 7.5H8.5C9.05229 7.5 9.5 7.05228 9.5 6.5V4.5C9.5 3.94772 9.05229 3.5 8.5 3.5H1.5C0.947715 3.5 0.5 3.94772 0.5 4.5V6.5C0.5 7.05228 0.947715 7.5 1.5 7.5H2.5M3.5 9.5H6.5C7.05228 9.5 7.5 9.05228 7.5 8.5V6.5C7.5 5.94772 7.05228 5.5 6.5 5.5H3.5C2.94772 5.5 2.5 5.94772 2.5 6.5V8.5C2.5 9.05228 2.94772 9.5 3.5 9.5ZM7.5 3.5V1.5C7.5 0.947715 7.05228 0.5 6.5 0.5H3.5C2.94772 0.5 2.5 0.947715 2.5 1.5V3.5H7.5Z" stroke="#333333" stroke-linecap="round" stroke-linejoin="round"/>
</svg>
