<svg width="10" height="10" viewBox="0 0 10 10" fill="none" xmlns="http://www.w3.org/2000/svg">
<path d="M4.16231 1.15865C4.37551 0.280448 5.62449 0.280449 5.83769 1.15865C5.97541 1.72596 6.62537 1.99519 7.12391 1.69142C7.89565 1.2212 8.77881 2.10435 8.30858 2.87609C8.00481 3.37463 8.27404 4.02459 8.84135 4.16231C9.71955 4.37551 9.71955 5.62449 8.84135 5.83769C8.27404 5.97541 8.00481 6.62537 8.30858 7.12391C8.77881 7.89565 7.89565 8.77881 7.12391 8.30858C6.62537 8.00481 5.97541 8.27404 5.83769 8.84135C5.62449 9.71955 4.37551 9.71955 4.16231 8.84135C4.02459 8.27404 3.37463 8.00481 2.87609 8.30858C2.10435 8.77881 1.2212 7.89565 1.69143 7.12391C1.99519 6.62537 1.72596 5.97541 1.15865 5.83769C0.280449 5.62449 0.280448 4.37551 1.15865 4.16231C1.72596 4.02459 1.99519 3.37463 1.69142 2.87609C1.22119 2.10435 2.10435 1.22119 2.87609 1.69142C3.37463 1.99519 4.02459 1.72596 4.16231 1.15865Z" stroke="white" stroke-linecap="round" stroke-linejoin="round"/>
<path d="M6.5 5C6.5 5.82843 5.82843 6.5 5 6.5C4.17157 6.5 3.5 5.82843 3.5 5C3.5 4.17157 4.17157 3.5 5 3.5C5.82843 3.5 6.5 4.17157 6.5 5Z" stroke="white" stroke-linecap="round" stroke-linejoin="round"/>
</svg>
