<svg width="18" height="21" viewBox="0 0 18 21" fill="none" xmlns="http://www.w3.org/2000/svg">
<path d="M6.28066 12.1363C5.98776 11.8434 5.51289 11.8434 5.22 12.1363C4.9271 12.4292 4.9271 12.9041 5.22 13.197L6.28066 12.1363ZM7.91699 14.8333L7.38666 15.3637C7.52731 15.5043 7.71808 15.5833 7.91699 15.5833C8.1159 15.5833 8.30667 15.5043 8.44732 15.3637L7.91699 14.8333ZM12.7807 11.0303C13.0735 10.7374 13.0735 10.2626 12.7807 9.96967C12.4878 9.67678 12.0129 9.67678 11.72 9.96967L12.7807 11.0303ZM15.8337 5.08333V18.0833H17.3337V5.08333H15.8337ZM14.417 19.5H3.58366V21H14.417V19.5ZM2.16699 18.0833V5.08333H0.666992V18.0833H2.16699ZM3.58366 3.66667H5.75033V2.16667H3.58366V3.66667ZM12.2503 3.66667H14.417V2.16667H12.2503V3.66667ZM3.58366 19.5C2.80126 19.5 2.16699 18.8657 2.16699 18.0833H0.666992C0.666992 19.6942 1.97283 21 3.58366 21V19.5ZM15.8337 18.0833C15.8337 18.8657 15.1994 19.5 14.417 19.5V21C16.0278 21 17.3337 19.6942 17.3337 18.0833H15.8337ZM17.3337 5.08333C17.3337 3.4725 16.0278 2.16667 14.417 2.16667V3.66667C15.1994 3.66667 15.8337 4.30093 15.8337 5.08333H17.3337ZM2.16699 5.08333C2.16699 4.30093 2.80126 3.66667 3.58366 3.66667V2.16667C1.97283 2.16667 0.666992 3.4725 0.666992 5.08333H2.16699ZM5.22 13.197L7.38666 15.3637L8.44732 14.303L6.28066 12.1363L5.22 13.197ZM8.44732 15.3637L12.7807 11.0303L11.72 9.96967L7.38666 14.303L8.44732 15.3637ZM7.91699 1.5H10.0837V5.96046e-08H7.91699V1.5ZM10.0837 4.33333H7.91699V5.83333H10.0837V4.33333ZM7.91699 4.33333C7.13459 4.33333 6.50033 3.69907 6.50033 2.91667H5.00033C5.00033 4.5275 6.30616 5.83333 7.91699 5.83333V4.33333ZM11.5003 2.91667C11.5003 3.69907 10.8661 4.33333 10.0837 4.33333V5.83333C11.6945 5.83333 13.0003 4.5275 13.0003 2.91667H11.5003ZM10.0837 1.5C10.8661 1.5 11.5003 2.13426 11.5003 2.91667H13.0003C13.0003 1.30584 11.6945 5.96046e-08 10.0837 5.96046e-08V1.5ZM7.91699 5.96046e-08C6.30616 5.96046e-08 5.00033 1.30584 5.00033 2.91667H6.50033C6.50033 2.13426 7.13459 1.5 7.91699 1.5V5.96046e-08Z" fill="#111827"/>
</svg>
