<svg width="8" height="11" viewBox="0 0 8 11" fill="none" xmlns="http://www.w3.org/2000/svg">
<mask id="path-1-outside-1_2788_2931" maskUnits="userSpaceOnUse" x="-0.5" y="0.5" width="9" height="11" fill="black">
<rect fill="white" x="-0.5" y="0.5" width="9" height="11"/>
<path d="M2.5 2.5C2.5 1.94772 2.94772 1.5 3.5 1.5H4.5C5.05228 1.5 5.5 1.94772 5.5 2.5C5.5 3.05228 5.05228 3.5 4.5 3.5H3.5C2.94772 3.5 2.5 3.05228 2.5 2.5Z"/>
</mask>
<path d="M2.85355 6.64645C2.65829 6.45118 2.34171 6.45118 2.14645 6.64645C1.95118 6.84171 1.95118 7.15829 2.14645 7.35355L2.85355 6.64645ZM3.5 8L3.14645 8.35355C3.34171 8.54882 3.65829 8.54882 3.85355 8.35355L3.5 8ZM5.85355 6.35355C6.04882 6.15829 6.04882 5.84171 5.85355 5.64645C5.65829 5.45118 5.34171 5.45118 5.14645 5.64645L5.85355 6.35355ZM7 3.5V9.5H8V3.5H7ZM6.5 10H1.5V11H6.5V10ZM1 9.5V3.5H0V9.5H1ZM1.5 3H2.5V2H1.5V3ZM5.5 3H6.5V2H5.5V3ZM1.5 10C1.22386 10 1 9.77614 1 9.5H0C0 10.3284 0.671573 11 1.5 11V10ZM7 9.5C7 9.77614 6.77614 10 6.5 10V11C7.32843 11 8 10.3284 8 9.5H7ZM8 3.5C8 2.67157 7.32843 2 6.5 2V3C6.77614 3 7 3.22386 7 3.5H8ZM1 3.5C1 3.22386 1.22386 3 1.5 3V2C0.671573 2 0 2.67157 0 3.5H1ZM2.14645 7.35355L3.14645 8.35355L3.85355 7.64645L2.85355 6.64645L2.14645 7.35355ZM3.85355 8.35355L5.85355 6.35355L5.14645 5.64645L3.14645 7.64645L3.85355 8.35355ZM3.5 2.5H4.5V0.5H3.5V2.5ZM4.5 2.5H3.5V4.5H4.5V2.5ZM3.5 2.5H1.5C1.5 3.60457 2.39543 4.5 3.5 4.5V2.5ZM4.5 2.5V4.5C5.60457 4.5 6.5 3.60457 6.5 2.5H4.5ZM4.5 2.5H6.5C6.5 1.39543 5.60457 0.5 4.5 0.5V2.5ZM3.5 0.5C2.39543 0.5 1.5 1.39543 1.5 2.5H3.5V0.5Z" fill="black" mask="url(#path-1-outside-1_2788_2931)"/>
</svg>
