<svg width="13" height="14" viewBox="0 0 13 14" fill="none" xmlns="http://www.w3.org/2000/svg">
<path d="M8.76759 10.5629H12.1536L11.2022 9.61145C10.9442 9.35343 10.7992 9.00347 10.7992 8.63857V6.49966C10.7992 4.73051 9.66853 3.22544 8.09039 2.66765V2.43644C8.09039 1.68842 7.484 1.08203 6.73598 1.08203C5.98797 1.08203 5.38158 1.68842 5.38158 2.43644V2.66765C3.80343 3.22544 2.67277 4.73051 2.67277 6.49966V8.63857C2.67277 9.00347 2.52781 9.35343 2.26978 9.61145L1.31836 10.5629H4.70437M8.76759 10.5629V11.2401C8.76759 12.3621 7.85801 13.2717 6.73598 13.2717C5.61396 13.2717 4.70437 12.3621 4.70437 11.2401V10.5629M8.76759 10.5629H4.70437" stroke="#F5D563" stroke-width="0.677203" stroke-linecap="round" stroke-linejoin="round"/>
</svg>
