<svg width="8" height="6" viewBox="0 0 8 6" fill="none" xmlns="http://www.w3.org/2000/svg">
<path d="M7.57374 1.11657C7.68423 0.983983 7.66631 0.786931 7.53373 0.676443C7.40114 0.565954 7.20409 0.583868 7.0936 0.716454L4.84748 3.41179C4.3963 3.95321 4.07891 4.3329 3.80362 4.58149C3.53475 4.82428 3.34919 4.90145 3.167 4.90145C2.98481 4.90145 2.79925 4.82428 2.53038 4.58149C2.25509 4.3329 1.9377 3.95321 1.48652 3.41179L0.907069 2.71645C0.79658 2.58387 0.599529 2.56595 0.466942 2.67644C0.334356 2.78693 0.316442 2.98398 0.426931 3.11657L1.02246 3.8312C1.45382 4.34885 1.79927 4.76341 2.11151 5.04536C2.43403 5.3366 2.76372 5.52645 3.167 5.52645C3.57028 5.52645 3.89997 5.3366 4.22249 5.04536C4.53472 4.76341 4.88017 4.34886 5.31153 3.83122L7.57374 1.11657Z" fill="white"/>
</svg>
